<svg xmlns="http://www.w3.org/2000/svg" viewBox="0 0 512.001 512.001" style="enable-background:new 0 0 512.001 512.001" xml:space="preserve"><path d="M230.77 9.523a99.74 99.74 0 0 0-2.566-1.114c-5.387-2.25-11.582.291-13.833 5.678-2.252 5.388.29 11.582 5.678 13.833.679.284 1.351.575 2.017.877 1.413.638 2.89.94 4.346.94 4.028 0 7.877-2.314 9.643-6.226 2.402-5.323.036-11.585-5.285-13.988z"/><path d="M485.377 384.584a10.58 10.58 0 0 0-7.777-9.095c-.39-.105-39.469-10.765-79.317-36.47-56.222-36.273-85.335-82.409-86.527-137.131-1.015-46.887-7.085-86.124-18.039-116.619-8.969-25.006-21.463-44.814-37.13-58.873-4.347-3.9-11.031-3.54-14.932.808-3.899 4.346-3.538 11.031.808 14.93 11.915 10.693 21.748 25.766 29.289 44.839-28.615 36.931-48.786 84.422-55.618 131.308-7.372 50.591.859 94.458 23.174 123.521 12.116 15.781 35.654 35.852 76.957 35.85 20.495 0 45.373-4.955 75.388-17.815 20.246 12.532 39.736 21.388 54.471 27.187-15.623 6.44-37.864 14.667-63.583 21.43-45.628 11.995-111.939 21.731-168.714-.007-41.8-16.006-66.083-40.336-76.418-76.57-9.329-32.706-6.013-70.899-2.805-107.833 2.678-30.841 5.207-59.971.874-86.25C130.632 108.39 111.729 87 80.813 75.936c-7.705-2.758-15.228-4.527-21.807-5.661C97.095 33.686 156.383 16.9 197.45 22c5.786.717 11.077-3.394 11.797-9.188.72-5.795-3.394-11.077-9.189-11.797-26.022-3.232-58.166 1.334-88.185 12.534-24.218 9.034-58.296 26.576-83.121 58.841a10.572 10.572 0 0 0-1.062 11.185 10.589 10.589 0 0 0 9.462 5.835l.153-.001c.187-.019 18.232-.182 36.906 6.626 23.264 8.481 36.858 23.686 40.404 45.199 3.901 23.658 1.483 51.502-1.077 80.983-3.373 38.843-6.861 79.011 3.537 115.462 12.146 42.58 41.32 72.189 89.192 90.519 6.024 2.306 12.135 4.275 18.299 5.97-8.531 8.24-13.851 19.783-13.851 32.551 0 24.969 20.313 45.283 45.283 45.283 24.969 0 45.283-20.314 45.283-45.283a45 45 0 0 0-7.089-24.28c34.646-.442 67.721-6.665 94.185-13.65 52.304-13.806 89.746-32.87 91.314-33.676a10.579 10.579 0 0 0 5.686-10.529zm-229.296-55.658c-18.535-24.139-25.468-63.356-19.022-107.595 5.602-38.443 20.88-77.306 42.685-109.393 6.454 25.125 10.11 55.411 10.868 90.41 1.214 55.664 28.768 104.82 79.957 143.147-51.975 19.168-91.345 13.571-114.488-16.569zM256 490.852c-13.309 0-24.137-10.827-24.137-24.137s10.828-24.137 24.137-24.137c13.31 0 24.137 10.827 24.137 24.137-.001 13.31-10.828 24.137-24.137 24.137z"/><path d="M194.698 52.604c-5.84 0-10.573 4.735-10.573 10.573 0 6.32-5.141 11.46-11.46 11.46-6.313 0-11.449-5.141-11.449-11.46 0-5.839-4.734-10.573-10.573-10.573s-10.573 4.735-10.573 10.573c0 17.98 14.623 32.607 32.595 32.607 17.979 0 32.607-14.627 32.607-32.607-.001-5.838-4.734-10.573-10.574-10.573z"/></svg>